<svg xmlns="http://www.w3.org/2000/svg" viewBox="124 -1 100 78" preserveAspectRatio="xMidYMid meet">
  <!-- Top decoration / crown -->
  <path fill="#ffffff" d="M 157.824219 8.234375 C 157.824219 8.234375 160.117188 8.609375 162.433594 7.679688 C 162.445312 7.679688 162.453125 7.671875 162.472656 7.660156 C 163.433594 7.363281 164.292969 6.78125 164.96875 6.402344 C 165.203125 6.273438 165.414062 6.144531 165.601562 6.027344 C 165.621094 6.015625 165.640625 6.007812 165.667969 5.996094 C 165.667969 5.996094 166.539062 5.582031 167.796875 6.226562 C 168.210938 6.441406 168.757812 6.71875 169.359375 7.027344 C 169.667969 7.183594 169.984375 7.34375 170.3125 7.5 C 170.3125 7.5 170.90625 7.808594 171.578125 8.066406 C 171.726562 8.117188 172.152344 8.242188 172.597656 8.304688 C 173.042969 8.363281 173.734375 8.304688 174.011719 8.234375 C 176.078125 7.660156 177.988281 4.859375 178.503906 4.265625 C 179.019531 3.671875 179.820312 2.644531 181.570312 2.257812 C 183.324219 1.871094 185.09375 2.613281 185.300781 4.214844 C 185.46875 5.492188 184.855469 7.542969 183.402344 8.789062 C 181.710938 10.253906 180.167969 9.816406 180.167969 9.816406 C 180.335938 9.867188 181.53125 10.886719 181.53125 10.886719 C 181.53125 10.886719 182.027344 11.074219 182.886719 10.816406 C 182.90625 10.808594 182.925781 10.808594 182.949219 10.796875 C 183.007812 10.777344 183.074219 10.757812 183.144531 10.726562 C 184.242188 10.3125 185.074219 9.324219 185.578125 8.480469 C 186.242188 7.394531 187.171875 4.988281 186.480469 3.394531 C 185.609375 1.394531 184.234375 0.78125 182.097656 0.554688 C 178.941406 0.121094 175.953125 5.117188 174.0625 5.96875 C 173.714844 6.144531 172.914062 6.394531 172.171875 6.007812 C 172.152344 5.996094 168.054688 4 167.984375 3.980469 C 166.164062 3.238281 164.046875 4.335938 163.957031 4.382812 C 163.058594 4.917969 162.105469 5.53125 161.089844 5.800781 C 160.5625 5.9375 159.21875 6.175781 158.207031 6.046875 C 158.140625 6.027344 156.347656 5.613281 156.851562 3.453125 C 157.140625 2.296875 157.347656 2.109375 157.070312 1.355469 C 156.785156 0.753906 156.238281 0.425781 156.210938 0.40625 C 155.972656 0.277344 155.683594 0.148438 155.339844 0.0390625 C 155.339844 0.0390625 155.496094 0.238281 155.585938 0.59375 C 155.617188 0.714844 155.636719 0.863281 155.644531 1.019531 C 155.65625 1.238281 155.617188 1.535156 155.4375 2.050781 C 155.179688 2.683594 155.011719 3.484375 154.902344 4.117188 C 154.855469 4.40625 154.914062 5.027344 155.011719 5.800781 C 155.308594 8.074219 157.359375 8.195312 157.824219 8.234375 " fill-opacity="1" fill-rule="nonzero"/>
  <!-- Right curl / tail -->
  <path fill="#ffffff" d="M 184.453125 13.003906 C 184.433594 13.398438 184.460938 13.558594 184.460938 13.558594 C 184.898438 14.101562 185.292969 14.6875 185.609375 15.308594 C 185.609375 15.308594 185.828125 15.765625 185.886719 15.882812 C 186.113281 15.65625 187.035156 14.605469 186.28125 13.308594 C 185.429688 11.847656 190.132812 9.660156 192.683594 12.339844 C 195.238281 15.023438 195.5625 22.878906 204.113281 17.929688 L 204.90625 17.367188 C 204.90625 17.367188 199.355469 19 197.296875 13.527344 C 195.226562 8.054688 188.914062 9.324219 187.09375 10.054688 C 185.46875 10.71875 184.558594 12.003906 184.453125 13.003906 " fill-opacity="1" fill-rule="nonzero"/>
  <!-- Small loop detail -->
  <path fill="#ffffff" d="M 190.566406 25.34375 C 191.25 24.542969 191.675781 23.839844 191.921875 23.375 C 192.128906 23.007812 192.191406 22.769531 192.191406 22.769531 C 192.546875 21.523438 191.65625 20.484375 190.785156 19.773438 C 190.785156 19.773438 188.578125 18.386719 188.417969 18.140625 C 188.417969 18.140625 187.339844 18.78125 188.25 19.890625 C 189.160156 21.007812 190.558594 21.078125 190.527344 22.375 C 190.507812 23.542969 189.824219 24.640625 188.460938 25.144531 C 187.300781 25.5625 186.53125 24.917969 186.222656 24.542969 C 186.042969 24.292969 185.855469 24.007812 185.789062 23.917969 C 185.09375 24.027344 184.09375 24.015625 183.5 23.800781 C 184.898438 26.570312 187.230469 27.984375 187.230469 27.984375 C 188.804688 28.203125 189.191406 27.34375 189.191406 27.34375 C 189.003906 27.292969 188.746094 27.046875 188.617188 26.769531 C 188.984375 26.660156 189.714844 26.332031 190.566406 25.34375 " fill-opacity="1" fill-rule="nonzero"/>
  <!-- Central spine -->
  <path fill="#ffffff" d="M 183.839844 18.664062 C 183.097656 12.210938 179.832031 10.449219 179.832031 10.449219 L 178.761719 11.332031 C 180.085938 11.996094 181.105469 15.171875 182.136719 17.8125 C 183.164062 20.445312 184.441406 20.632812 184.441406 20.632812 C 184.105469 20.257812 183.839844 18.664062 183.839844 18.664062 " fill-opacity="1" fill-rule="nonzero"/>
  <!-- Large lower swoosh -->
  <path fill="#ffffff" d="M 210.230469 54.050781 L 210.269531 54.050781 C 207.003906 51.0625 202.667969 47.90625 196.929688 44.738281 C 196.257812 44.371094 195.574219 43.996094 194.863281 43.628906 C 192.554688 42.375 189.539062 40.671875 185.550781 38.21875 C 181.679688 35.84375 180.761719 33.683594 180.988281 32.003906 C 180.988281 31.992188 181.136719 29.390625 183.828125 28.402344 C 184.261719 28.242188 184.769531 28.125 185.363281 28.066406 L 183.839844 26.53125 C 181.652344 27.164062 179.640625 28.460938 178.839844 30.875 C 178.78125 31.011719 178.730469 31.160156 178.691406 31.308594 C 177.8125 33.785156 175.929688 37.761719 175.929688 37.761719 L 176.8125 37.929688 C 181.957031 39.039062 186.382812 40.730469 189.667969 42.820312 C 190.09375 43.066406 190.527344 43.324219 190.953125 43.582031 C 192.664062 44.621094 194.308594 45.71875 195.851562 46.847656 C 195.871094 46.867188 195.890625 46.875 195.910156 46.886719 C 196.703125 47.539062 197.394531 48.164062 198.019531 48.777344 C 199.105469 49.695312 199.996094 50.667969 200.640625 51.683594 C 200.9375 52.148438 201.183594 52.636719 201.382812 53.121094 C 201.550781 53.546875 201.691406 53.980469 201.777344 54.425781 C 201.867188 54.871094 201.917969 55.328125 201.917969 55.792969 C 201.917969 58.433594 201.304688 65.824219 184.480469 68.933594 C 167.660156 72.050781 147.292969 68.476562 141.117188 64.855469 C 141.59375 65.65625 155.546875 76.214844 184.460938 72.40625 C 213.375 68.605469 220.261719 72.652344 220.261719 72.652344 C 220.261719 72.652344 221.390625 64.292969 210.230469 54.050781 " fill-opacity="1" fill-rule="nonzero"/>
  <!-- Main figure body -->
  <path fill="#ffffff" d="M 181.15625 22.257812 C 179.621094 20.167969 178.839844 17.316406 178.523438 15.863281 C 178.414062 15.300781 178.355469 14.902344 178.355469 14.902344 C 178.355469 14.933594 178.355469 14.964844 178.347656 14.992188 C 178.335938 14.941406 178.335938 14.914062 178.335938 14.914062 C 178.335938 14.914062 177.722656 17.109375 173.476562 23.621094 C 169.371094 29.925781 162.425781 32.269531 161.988281 32.410156 C 160.949219 31.25 159.554688 28.53125 162.742188 23.839844 C 163.355469 22.9375 163.898438 22.148438 164.363281 21.445312 C 167.300781 17.0625 167.707031 16.121094 168.210938 13.222656 C 168.320312 12.617188 168.292969 12.101562 168.164062 11.675781 C 168.042969 11.273438 167.835938 10.945312 167.570312 10.679688 C 167.34375 10.449219 167.066406 10.261719 166.769531 10.105469 C 166.480469 9.957031 166.164062 9.847656 165.847656 9.746094 C 165.027344 9.519531 164.15625 9.441406 163.523438 9.390625 L 163.53125 9.402344 L 163.503906 9.402344 C 163.503906 9.402344 164.304688 10.3125 164.511719 13.507812 C 164.671875 16.042969 164.117188 18.121094 163.226562 20.007812 C 162.414062 21.730469 161.316406 23.296875 160.21875 24.886719 C 158.269531 27.71875 156.328125 30.667969 155.980469 34.84375 C 155.933594 35.445312 155.914062 36.078125 155.941406 36.742188 C 157.269531 36.625 158.632812 36.546875 160.007812 36.496094 C 154.476562 40.800781 148.234375 45.066406 142.503906 48.726562 C 142.21875 48.945312 141.929688 49.152344 141.632812 49.371094 C 138.121094 51.921875 134.054688 54.425781 131.015625 57.652344 C 130.007812 58.722656 129.105469 59.878906 128.382812 61.144531 C 131.074219 59.066406 137.8125 56.988281 137.8125 56.988281 C 144.660156 49.863281 157.167969 41.148438 157.851562 40.671875 C 159.582031 39.296875 161.285156 37.882812 162.949219 36.445312 C 165.164062 34.515625 167.320312 32.539062 169.398438 30.5 C 175.78125 24.679688 181.15625 22.257812 181.15625 22.257812 " fill-opacity="1" fill-rule="nonzero"/>
</svg>
